<?xml version="1.0" standalone="no"?>
<!DOCTYPE svg PUBLIC "-//W3C//DTD SVG 20010904//EN"
 "http://www.w3.org/TR/2001/REC-SVG-20010904/DTD/svg10.dtd">
<svg version="1.0" xmlns="http://www.w3.org/2000/svg"
 width="500.000000pt" height="500.000000pt" viewBox="0 0 500.000000 500.000000"
 preserveAspectRatio="xMidYMid meet">
<metadata>
Created by potrace 1.11, written by Peter Selinger 2001-2013
</metadata>
<g transform="translate(0.000000,500.000000) scale(0.100000,-0.100000)"
fill="#000000" stroke="none">
<path d="M2265 4822 c-37 -4 -293 -49 -320 -55 -298 -70 -612 -223 -875 -425
-121 -93 -321 -298 -423 -434 -48 -64 -87 -118 -87 -121 0 -3 -13 -25 -29 -49
-125 -186 -256 -526 -301 -776 -30 -171 -35 -232 -35 -442 1 -322 50 -571 174
-875 33 -83 130 -265 186 -351 183 -281 436 -531 719 -708 235 -147 571 -276
816 -311 19 -3 45 -8 56 -10 117 -25 518 -26 669 -2 55 9 109 18 120 21 432
94 800 281 1104 563 l73 68 -312 312 c-266 267 -314 311 -330 303 -10 -5 -20
-13 -22 -17 -7 -17 -127 -113 -193 -155 -108 -70 -275 -149 -365 -173 -55 -15
-204 -44 -250 -50 -59 -6 -297 -8 -308 -1 -4 2 -32 7 -62 10 -198 23 -456 134
-638 273 -413 316 -611 811 -537 1343 36 260 187 556 388 761 208 212 509 367
782 404 22 3 55 8 73 11 45 7 237 7 297 -1 299 -37 574 -159 778 -344 l66 -60
311 311 c180 180 309 316 306 324 -8 20 -183 168 -282 240 -248 177 -586 325
-869 379 -157 30 -240 37 -435 39 -118 1 -228 0 -245 -2z"/>
</g>
</svg>
