<svg id="Layer_1" xmlns="http://www.w3.org/2000/svg" xmlns:xlink="http://www.w3.org/1999/xlink" viewBox="0 0 456.3 456.3"><style>.st0{clip-path:url(#SVGID_2_);fill:#010101;}</style><defs><path id="SVGID_1_" d="M0 0h456.3v456.3H0z"/></defs><clipPath id="SVGID_2_"><use xlink:href="#SVGID_1_" overflow="visible"/></clipPath><path class="st0" d="M228.1 41.1c60.9 0 68.1.2 92.2 1.3 22.2 1 34.3 4.7 42.4 7.9 10.6 4.1 18.2 9.1 26.2 17.1 8 8 12.9 15.6 17.1 26.2 3.1 8 6.8 20.1 7.9 42.4 1.1 24.1 1.3 31.3 1.3 92.2 0 60.9-.2 68.1-1.3 92.2-1 22.2-4.7 34.3-7.9 42.4-4.1 10.6-9.1 18.2-17.1 26.2-8 8-15.6 12.9-26.2 17.1-8 3.1-20.1 6.8-42.4 7.9-24.1 1.1-31.3 1.3-92.2 1.3-60.9 0-68.1-.2-92.2-1.3-22.2-1-34.3-4.7-42.4-7.9C82.9 402 75.3 397 67.3 389c-8-8-12.9-15.6-17.1-26.2-3.1-8-6.8-20.1-7.9-42.4-1.1-24.1-1.3-31.3-1.3-92.2 0-60.9.2-68.1 1.3-92.2 1-22.2 4.7-34.3 7.9-42.4 4.1-10.6 9.1-18.2 17.1-26.2 8-8 15.6-12.9 26.2-17.1 8-3.1 20.1-6.8 42.4-7.9 24.1-1.1 31.3-1.3 92.2-1.3m0-41.1c-62 0-69.7.3-94.1 1.4-24.3 1.1-40.9 5-55.4 10.6-15 5.8-27.7 13.6-40.4 26.3C25.6 51 17.8 63.7 12 78.7c-5.6 14.5-9.5 31.1-10.6 55.4-1.1 24.3-1.4 32.1-1.4 94 0 62 .3 69.7 1.4 94.1 1.1 24.3 5 40.9 10.6 55.4 5.8 15 13.6 27.7 26.3 40.4 12.7 12.7 25.4 20.5 40.4 26.3 14.5 5.6 31.1 9.5 55.4 10.6 24.3 1.1 32.1 1.4 94.1 1.4 62 0 69.7-.3 94.1-1.4 24.3-1.1 40.9-5 55.4-10.6 15-5.8 27.7-13.6 40.4-26.3 12.7-12.7 20.5-25.4 26.3-40.4 5.6-14.5 9.5-31.1 10.6-55.4 1.1-24.3 1.4-32.1 1.4-94.1 0-62-.3-69.7-1.4-94.1-1.1-24.3-5-40.9-10.6-55.4-5.8-15-13.6-27.7-26.3-40.4-12.7-12.7-25.4-20.5-40.4-26.3-14.5-5.6-31.1-9.5-55.4-10.6C297.9.3 290.1 0 228.1 0"/><path class="st0" d="M228.1 111C163.4 111 111 163.4 111 228.1c0 64.7 52.5 117.2 117.2 117.2s117.2-52.4 117.2-117.2c-.1-64.7-52.6-117.1-117.3-117.1m0 193.2c-42 0-76-34-76-76s34-76 76-76 76 34 76 76c.1 41.9-34 76-76 76M377.3 106.4c0 15.1-12.3 27.4-27.4 27.4-15.1 0-27.4-12.3-27.4-27.4 0-15.1 12.3-27.4 27.4-27.4 15.1 0 27.4 12.2 27.4 27.4"/></svg>